<?xml version="1.0" encoding="utf-8"?>
<!-- Generator: Adobe Illustrator 23.0.3, SVG Export Plug-In . SVG Version: 6.00 Build 0)  -->
<svg version="1.1" id="Camada_1" xmlns="http://www.w3.org/2000/svg" xmlns:xlink="http://www.w3.org/1999/xlink" x="0px" y="0px"
	 viewBox="0 0 649.33 206.35" style="enable-background:new 0 0 649.33 206.35;" xml:space="preserve">
<style type="text/css">
	.st0{fill:#FFFFFF;}
</style>
<g id="XMLID_28_">
	<g id="XMLID_16_">
		<circle id="XMLID_798_" class="st0" cx="67.31" cy="100.49" r="12.18"/>
		<circle id="XMLID_796_" class="st0" cx="160.33" cy="52.02" r="12.18"/>
		<path id="XMLID_795_" class="st0" d="M153.25,69.65"/>
		<path id="XMLID_790_" class="st0" d="M132.28,116.94"/>
		<path id="XMLID_789_" class="st0" d="M131.75,117.56"/>
		<path id="XMLID_788_" class="st0" d="M111.68,134.83"/>
		<path id="XMLID_772_" class="st0" d="M76.39,103.51"/>
		<path id="XMLID_771_" class="st0" d="M111.97,136.14"/>
		<path id="XMLID_770_" class="st0" d="M131.75,119.69"/>
		<g id="XMLID_18_">
			<path id="XMLID_19_" class="st0" d="M67.31,107.63V93.35c22.79,0,41.33-18.54,41.33-41.33h14.28
				C122.92,82.68,97.97,107.63,67.31,107.63z"/>
		</g>
		<path id="XMLID_17_" class="st0" d="M197.35,151.48l-45.6-45.72c9.94-15.54,15.73-33.98,15.73-53.75h-14.28
			c0,20.79-7.43,39.88-19.77,54.75l5.81,6.12l24.39,25.01h-30.88l-5.47-5.7c0.02-0.01,0.04-0.03,0.06-0.04l-4.83-4.93l-2.22-2.32
			h-0.05l-3.01-3.07c-14.08,10.09-31.31,16.06-49.91,16.06v14.28c17.26,0,33.51-4.41,47.7-12.13l11.29,11.77
			c0.22,0.23,0.53,0.36,0.85,0.36h69.91C197.42,152.18,197.6,151.74,197.35,151.48z"/>
	</g>
	<g id="XMLID_59_">
		<path id="XMLID_60_" class="st0" d="M225.05,152.48v-22.27h7.4c1.76,0,3.3,0.29,4.63,0.88c1.33,0.59,2.43,1.38,3.31,2.38
			c0.88,1,1.54,2.18,1.98,3.53c0.44,1.35,0.66,2.79,0.66,4.31c0,1.69-0.25,3.23-0.74,4.6c-0.49,1.37-1.2,2.54-2.12,3.51
			c-0.92,0.97-2.03,1.72-3.34,2.26s-2.77,0.8-4.38,0.8H225.05z M241.42,141.31c0-1.4-0.2-2.69-0.6-3.87
			c-0.4-1.18-0.98-2.2-1.74-3.06c-0.76-0.86-1.7-1.53-2.81-2.01c-1.11-0.48-2.38-0.72-3.83-0.72h-5.8v19.38h5.8
			c1.46,0,2.75-0.25,3.87-0.74c1.12-0.49,2.05-1.18,2.81-2.05c0.75-0.88,1.32-1.91,1.71-3.09
			C241.23,143.98,241.42,142.69,241.42,141.31z"/>
		<path id="XMLID_63_" class="st0" d="M253.94,130.21h1.38l9.41,22.27h-1.69l-3.1-7.34H249.3l-3.1,7.34h-1.73L253.94,130.21z
			 M259.49,143.82l-4.86-11.67l-4.96,11.67H259.49z"/>
		<path id="XMLID_66_" class="st0" d="M281.79,131.65h-8.15v20.83h-1.6v-20.83h-8.15v-1.44h17.91V131.65z"/>
		<path id="XMLID_68_" class="st0" d="M290.35,130.21h1.38l9.41,22.27h-1.69l-3.1-7.34h-10.63l-3.1,7.34h-1.73L290.35,130.21z
			 M295.9,143.82l-4.86-11.67l-4.96,11.67H295.9z"/>
		<path id="XMLID_71_" class="st0" d="M310.71,141.19c0-1.34,0.24-2.67,0.71-4c0.47-1.33,1.15-2.51,2.05-3.56
			c0.9-1.04,2-1.9,3.31-2.56c1.31-0.66,2.8-0.99,4.47-0.99c1.99,0,3.68,0.45,5.08,1.36c1.4,0.91,2.45,2.08,3.14,3.5l-1.32,0.75
			c-0.4-0.77-0.86-1.42-1.4-1.95c-0.53-0.52-1.11-0.95-1.72-1.27c-0.62-0.32-1.26-0.56-1.93-0.71c-0.67-0.15-1.33-0.22-1.98-0.22
			c-1.42,0-2.68,0.29-3.76,0.86c-1.09,0.58-2.01,1.32-2.76,2.24c-0.75,0.92-1.32,1.96-1.71,3.12c-0.39,1.16-0.58,2.33-0.58,3.5
			c0,1.32,0.23,2.57,0.69,3.76c0.46,1.19,1.09,2.24,1.88,3.15c0.79,0.91,1.74,1.64,2.82,2.18c1.09,0.54,2.26,0.82,3.51,0.82
			c0.67,0,1.36-0.08,2.07-0.25c0.71-0.17,1.39-0.43,2.04-0.78c0.65-0.35,1.25-0.81,1.82-1.36c0.56-0.55,1.04-1.21,1.41-1.96
			l1.38,0.66c-0.38,0.84-0.89,1.58-1.54,2.23s-1.37,1.19-2.16,1.63c-0.79,0.44-1.64,0.77-2.52,0.99c-0.89,0.22-1.76,0.33-2.62,0.33
			c-1.53,0-2.92-0.33-4.19-1s-2.36-1.54-3.28-2.62c-0.92-1.08-1.64-2.3-2.15-3.67C310.96,144.01,310.71,142.61,310.71,141.19z"/>
		<path id="XMLID_73_" class="st0" d="M349.03,151.04v1.44H334.2v-22.27h14.55v1.44H335.8v8.75h11.32v1.38H335.8v9.25H349.03z"/>
		<path id="XMLID_75_" class="st0" d="M355.3,133.22v19.26h-1.6v-22.27h1.22l15.62,19.6v-19.6h1.6v22.27h-1.47L355.3,133.22z"/>
		<path id="XMLID_77_" class="st0" d="M393.82,131.65h-8.16v20.83h-1.6v-20.83h-8.15v-1.44h17.91V131.65z"/>
		<path id="XMLID_79_" class="st0" d="M412.42,151.04v1.44h-14.83v-22.27h14.55v1.44h-12.95v8.75h11.32v1.38h-11.32v9.25H412.42z"/>
		<path id="XMLID_81_" class="st0" d="M417.09,152.48v-22.27h9.25c0.94,0,1.81,0.2,2.6,0.6c0.79,0.4,1.48,0.93,2.05,1.58
			c0.57,0.66,1.02,1.4,1.35,2.23c0.32,0.83,0.49,1.66,0.49,2.49c0,0.82-0.13,1.6-0.38,2.37s-0.61,1.45-1.07,2.05
			c-0.46,0.61-1.01,1.11-1.66,1.51c-0.65,0.4-1.36,0.66-2.13,0.78l5.55,8.66h-1.85l-5.39-8.41h-7.21v8.41H417.09z M418.69,142.6
			h7.81c0.71,0,1.36-0.16,1.94-0.47c0.58-0.31,1.09-0.73,1.51-1.24c0.42-0.51,0.74-1.1,0.96-1.76c0.22-0.66,0.33-1.33,0.33-2.02
			c0-0.71-0.13-1.4-0.39-2.05c-0.26-0.66-0.62-1.24-1.07-1.74c-0.45-0.5-0.97-0.9-1.57-1.21c-0.6-0.3-1.24-0.45-1.93-0.45h-7.59
			V142.6z"/>
	</g>
	<g id="XMLID_548_">
		<g id="XMLID_550_">
			<path id="XMLID_573_" class="st0" d="M265.96,109.92c-2.16,1.19-4.47,2.13-6.94,2.81c-2.47,0.68-5.07,1.02-7.8,1.02
				c-4.49,0-8.58-0.86-12.27-2.6c-3.69-1.73-6.85-4.03-9.46-6.9c-2.61-2.87-4.64-6.15-6.09-9.84c-1.45-3.69-2.17-7.5-2.17-11.42
				c0-3.98,0.75-7.81,2.26-11.5c1.5-3.69,3.61-6.96,6.3-9.8c2.7-2.84,5.89-5.1,9.59-6.77c3.69-1.67,7.72-2.51,12.1-2.51
				c4.49,0,8.58,0.9,12.27,2.68c3.69,1.79,6.84,4.13,9.46,7.03c2.61,2.9,4.63,6.19,6.05,9.88c1.42,3.69,2.13,7.44,2.13,11.25
				c0,3.86-0.68,7.56-2.05,11.08c-1.36,3.52-3.29,6.68-5.79,9.46l8.69,9.54h-13.12L265.96,109.92z M251.3,101.32
				c2.27,0,4.26-0.37,5.96-1.11l-9.71-10.74h13.12l3.75,4.18c0.91-1.59,1.59-3.29,2.05-5.11c0.45-1.82,0.68-3.66,0.68-5.54
				c0-2.33-0.34-4.59-1.02-6.77c-0.68-2.19-1.7-4.12-3.07-5.79c-1.36-1.68-3.02-3.03-4.98-4.05c-1.96-1.02-4.22-1.53-6.77-1.53
				c-2.67,0-4.98,0.53-6.94,1.58c-1.96,1.05-3.61,2.44-4.94,4.18c-1.34,1.73-2.33,3.69-2.98,5.88c-0.65,2.19-0.98,4.42-0.98,6.69
				c0,2.33,0.34,4.59,1.02,6.77s1.69,4.12,3.03,5.79c1.33,1.68,2.99,3.02,4.98,4.05C246.48,100.8,248.75,101.32,251.3,101.32z"/>
			<path id="XMLID_571_" class="st0" d="M301.83,114.18c-4.6,0-8.08-1.43-10.44-4.3c-2.36-2.87-3.54-7.09-3.54-12.65V68.59h13.63
				v25.65c0,2.73,0.54,4.82,1.62,6.26c1.08,1.45,2.61,2.17,4.6,2.17c1.82,0,3.58-0.48,5.28-1.45c1.7-0.96,3.21-2.64,4.52-5.03V68.59
				h13.63v29.4c0,1.36,0.21,2.31,0.64,2.85c0.43,0.54,1.18,0.87,2.26,0.98v11.5c-1.31,0.28-2.41,0.47-3.32,0.55
				c-0.91,0.09-1.73,0.13-2.47,0.13c-4.89,0-7.67-1.9-8.35-5.71l-0.26-2.73c-2.05,2.95-4.59,5.13-7.63,6.52
				C308.97,113.48,305.58,114.18,301.83,114.18z"/>
			<path id="XMLID_567_" class="st0" d="M354.4,114.18c-2.22,0-4.27-0.36-6.18-1.07c-1.9-0.71-3.54-1.71-4.9-2.98
				c-1.36-1.28-2.44-2.78-3.24-4.52c-0.79-1.73-1.19-3.62-1.19-5.67c0-2.22,0.47-4.23,1.41-6.05c0.94-1.82,2.26-3.38,3.96-4.69
				c1.71-1.31,3.72-2.33,6.05-3.07c2.33-0.74,4.91-1.11,7.75-1.11c1.88,0,3.69,0.16,5.45,0.47c1.76,0.31,3.29,0.78,4.6,1.41v-2.05
				c0-5.17-2.98-7.75-8.95-7.75c-2.44,0-4.77,0.41-6.99,1.24c-2.22,0.82-4.54,2.06-6.99,3.71l-4.01-8.52
				c2.95-1.93,6.02-3.38,9.2-4.34c3.18-0.97,6.56-1.45,10.14-1.45c6.76,0,11.98,1.59,15.68,4.77c3.69,3.18,5.54,7.84,5.54,13.98
				v11.5c0,1.36,0.21,2.31,0.64,2.85c0.43,0.54,1.18,0.87,2.26,0.98v11.5c-1.19,0.28-2.27,0.47-3.24,0.55
				c-0.97,0.09-1.85,0.13-2.64,0.13c-2.56,0-4.49-0.5-5.79-1.49c-1.31-0.99-2.13-2.4-2.47-4.22l-0.26-2.05
				c-1.99,2.56-4.36,4.52-7.12,5.88C360.38,113.5,357.47,114.18,354.4,114.18z M346.31,60.33l9.37-9.2h9.8l9.29,9.2l-6.99,3.07
				l-7.24-5.37l-7.24,5.37L346.31,60.33z M358.41,104.38c1.48,0,2.91-0.26,4.3-0.77c1.39-0.51,2.54-1.19,3.45-2.05
				c1.31-1.02,1.96-2.1,1.96-3.24v-4.26c-1.19-0.45-2.49-0.81-3.88-1.07c-1.39-0.26-2.68-0.38-3.88-0.38c-2.5,0-4.56,0.57-6.18,1.7
				c-1.62,1.14-2.43,2.61-2.43,4.43c0,1.65,0.62,3,1.87,4.05C354.88,103.86,356.48,104.38,358.41,104.38z"/>
			<path id="XMLID_565_" class="st0" d="M434.75,113.33h-13.63V88.19c0-2.95-0.55-5.1-1.66-6.43c-1.11-1.33-2.57-2-4.39-2
				c-0.97,0-1.93,0.2-2.9,0.6c-0.97,0.4-1.9,0.95-2.81,1.66c-0.91,0.71-1.72,1.55-2.43,2.51c-0.71,0.97-1.27,2.02-1.66,3.15v25.65
				h-13.63V68.59h12.27v7.5c1.65-2.67,3.97-4.73,6.99-6.18c3.01-1.45,6.48-2.17,10.4-2.17c2.9,0,5.23,0.53,6.99,1.58
				c1.76,1.05,3.12,2.41,4.09,4.09c0.96,1.68,1.6,3.51,1.92,5.5c0.31,1.99,0.47,3.92,0.47,5.79V113.33z"/>
			<path id="XMLID_562_" class="st0" d="M472.33,110.94c-1.88,0.8-4.02,1.53-6.43,2.22c-2.41,0.68-4.84,1.02-7.28,1.02
				c-1.7,0-3.31-0.21-4.81-0.64c-1.51-0.43-2.83-1.11-3.96-2.05c-1.14-0.94-2.03-2.17-2.68-3.71c-0.65-1.53-0.98-3.38-0.98-5.54
				V78.9h-5.71V68.59h5.71V54.37h13.63v14.23h9.12V78.9h-9.12v18.66c0,1.48,0.37,2.54,1.11,3.2c0.74,0.65,1.67,0.98,2.81,0.98
				c1.02,0,2.07-0.17,3.15-0.51c1.08-0.34,2.02-0.71,2.81-1.11L472.33,110.94z"/>
			<path id="XMLID_559_" class="st0" d="M477.61,113.33V68.59h13.63v44.73H477.61z"/>
			<path id="XMLID_557_" class="st0" d="M497.98,90.92c0-3.07,0.54-6.01,1.62-8.82c1.08-2.81,2.64-5.28,4.69-7.41
				c2.05-2.13,4.56-3.82,7.54-5.07c2.98-1.25,6.38-1.88,10.18-1.88c5.17,0,9.52,1.09,13.04,3.28c3.52,2.19,6.16,5.04,7.92,8.56
				l-13.29,4c-1.76-2.84-4.34-4.26-7.75-4.26c-2.84,0-5.21,1.05-7.11,3.15c-1.9,2.1-2.85,4.91-2.85,8.44c0,1.76,0.26,3.36,0.77,4.81
				c0.51,1.45,1.22,2.68,2.13,3.71c0.91,1.02,1.97,1.82,3.2,2.39c1.22,0.57,2.51,0.85,3.88,0.85c1.71,0,3.27-0.41,4.69-1.24
				c1.42-0.82,2.47-1.89,3.15-3.2l13.29,4.09c-1.65,3.47-4.27,6.31-7.88,8.52c-3.61,2.22-7.99,3.32-13.16,3.32
				c-3.75,0-7.11-0.64-10.1-1.92c-2.98-1.28-5.51-2.98-7.58-5.11c-2.07-2.13-3.65-4.6-4.73-7.41
				C498.51,96.93,497.98,93.99,497.98,90.92z"/>
			<path id="XMLID_551_" class="st0" d="M570.06,114.18c-3.81,0-7.2-0.63-10.18-1.88c-2.98-1.25-5.5-2.94-7.54-5.07
				c-2.05-2.13-3.59-4.6-4.64-7.41c-1.05-2.81-1.58-5.75-1.58-8.82c0-3.07,0.52-6.01,1.58-8.82c1.05-2.81,2.6-5.28,4.64-7.41
				c2.05-2.13,4.56-3.83,7.54-5.11c2.98-1.28,6.38-1.92,10.18-1.92c3.8,0,7.18,0.64,10.14,1.92s5.45,2.98,7.5,5.11
				c2.05,2.13,3.61,4.6,4.69,7.41c1.08,2.81,1.62,5.75,1.62,8.82c0,3.07-0.53,6.01-1.58,8.82c-1.05,2.81-2.6,5.28-4.64,7.41
				c-2.05,2.13-4.56,3.82-7.54,5.07C577.26,113.55,573.86,114.18,570.06,114.18z M560.09,91.01c0,3.52,0.94,6.35,2.81,8.48
				c1.88,2.13,4.26,3.2,7.16,3.2c1.42,0,2.73-0.28,3.92-0.85c1.19-0.57,2.23-1.36,3.11-2.39c0.88-1.02,1.58-2.26,2.09-3.71
				c0.51-1.45,0.77-3.03,0.77-4.73c0-3.52-0.94-6.35-2.81-8.48c-1.88-2.13-4.23-3.2-7.07-3.2c-1.42,0-2.74,0.29-3.96,0.85
				c-1.22,0.57-2.27,1.36-3.15,2.39c-0.88,1.02-1.58,2.26-2.09,3.71C560.34,87.72,560.09,89.3,560.09,91.01z"/>
		</g>
		<circle id="XMLID_549_" class="st0" cx="484.43" cy="56.1" r="7.15"/>
	</g>
</g>
</svg>
