<?xml version="1.0" encoding="utf-8"?>
<!-- Generator: Adobe Illustrator 23.0.3, SVG Export Plug-In . SVG Version: 6.00 Build 0)  -->
<svg version="1.1" id="Camada_1" xmlns="http://www.w3.org/2000/svg" xmlns:xlink="http://www.w3.org/1999/xlink" x="0px" y="0px"
	 viewBox="0 0 425.2 425.2" style="enable-background:new 0 0 425.2 425.2;" xml:space="preserve">
<style type="text/css">
	.st0{fill:#FFFFFF;}
</style>
<g id="XMLID_37_">
	<g id="XMLID_61_">
		<circle id="XMLID_73_" class="st0" cx="63.38" cy="223.94" r="30.82"/>
		<circle id="XMLID_72_" class="st0" cx="298.7" cy="101.32" r="30.82"/>
		<path id="XMLID_71_" class="st0" d="M280.79,145.93"/>
		<path id="XMLID_70_" class="st0" d="M227.74,265.56"/>
		<path id="XMLID_69_" class="st0" d="M226.4,267.12"/>
		<path id="XMLID_68_" class="st0" d="M175.62,310.8"/>
		<path id="XMLID_67_" class="st0" d="M86.36,231.57"/>
		<path id="XMLID_66_" class="st0" d="M176.35,314.12"/>
		<path id="XMLID_65_" class="st0" d="M226.4,272.51"/>
		<g id="XMLID_63_">
			<path id="XMLID_64_" class="st0" d="M63.38,242v-36.13c57.65,0,104.56-46.91,104.56-104.56h36.13
				C204.07,178.89,140.95,242,63.38,242z"/>
		</g>
		<path id="XMLID_62_" class="st0" d="M392.34,352.95L276.98,237.3c25.14-39.32,39.79-85.95,39.79-135.98h-36.13
			c0,52.6-18.8,100.89-50.02,138.52l14.71,15.48l61.7,63.27H228.9l-13.84-14.42c0.05-0.04,0.1-0.07,0.15-0.11L203,291.58l-5.62-5.86
			h-0.12l-7.61-7.77c-35.62,25.53-79.2,40.63-126.27,40.63v36.13c43.67,0,84.78-11.14,120.68-30.68l28.55,29.77
			c0.56,0.58,1.34,0.92,2.15,0.92h176.85C392.53,354.71,392.99,353.6,392.34,352.95z"/>
	</g>
</g>
</svg>
