<?xml version="1.0" encoding="UTF-8"?><svg id="Layer_1" xmlns="http://www.w3.org/2000/svg" viewBox="0 0 1080 1080"><defs><style>.cls-1{fill:#fff;}</style></defs><path class="cls-1" d="m877.12,472.06v278.9c0,69.77-56.6,126.38-126.44,126.38h-421.36c-43.05,0-81.11-21.53-103.9-54.45-.44-.63-.89-1.27-1.33-1.9-.76-1.14-1.52-2.28-2.15-3.42-.38-.63-.76-1.27-1.14-1.84-30.33-51.29-15.45-118.65,48.31-184.63,1.39-1.33,2.79-2.79,4.24-4.24l301.06-301.06c12.35-12.35,12.35-32.29,0-44.64-6.2-6.21-14.25-9.31-22.35-9.31s-16.21,3.1-22.35,9.31l-326.83,326.77v-278.9c0-69.77,56.6-126.38,126.38-126.38h421.43c43.05,0,81.11,21.53,103.9,54.45.44.63.89,1.27,1.33,1.9.76,1.14,1.46,2.28,2.15,3.42.38.57.76,1.2,1.08,1.84,30.39,51.29,15.51,118.65-48.25,184.56-1.39,1.39-2.79,2.85-4.24,4.31l-41.47,41.47-259.59,259.59c-12.35,12.35-12.35,32.29,0,44.64,6.21,6.2,14.25,9.31,22.35,9.31s16.15-3.1,22.35-9.31l326.83-326.77Z"/></svg>