<?xml version="1.0" encoding="UTF-8"?><svg id="Layer_1" xmlns="http://www.w3.org/2000/svg" viewBox="0 0 1080 331.04"><defs><style>.cls-1{fill:#fff;}</style></defs><path class="cls-1" d="m354.94,199.38h42.32v16h-67.84v-10.05l39.01-66.52h-37.96v-16h63.61v9.65l-39.15,66.92Z"/><path class="cls-1" d="m420.8,185.23c1.32,9.52,7.54,16.66,17.46,16.66,8.99,0,13.62-3.7,18.12-10.32l12.3,8.33c-7.93,11.51-16.8,17.06-31.74,17.06-21.03,0-35.18-14.68-35.18-35.57s15.34-37.16,35.31-37.16,33.59,13.62,33.59,32.14c0,2.78-.4,6.08-.92,8.86h-48.93Zm30.68-12.83c-.4-8.33-6.22-13.49-13.88-13.49-8.99,0-13.89,5.69-15.87,13.49h29.76Z"/><path class="cls-1" d="m500.55,145.82l1.45,9.52c5.56-7.8,13.89-11.11,21.56-11.11s14.15,3.57,18.52,9.12c5.42,7.01,6.22,16,6.22,25.92v36.1h-18.78v-35.18c0-5.16-.13-10.98-2.12-14.94-1.72-3.44-5.16-4.89-9.26-4.89-5.55,0-11.64,3.17-15.08,8.86v46.15h-18.78v-69.56h16.27Z"/><path class="cls-1" d="m634.12,180.6c0,20.5-15.21,36.37-36.37,36.37s-36.5-15.87-36.5-36.37,15.21-36.37,36.5-36.37,36.37,15.87,36.37,36.37Zm-36.37-20.23c-10.32,0-17.33,8.86-17.33,20.23s7.01,20.23,17.33,20.23,17.19-8.86,17.19-20.23-6.88-20.23-17.19-20.23Z"/><path class="cls-1" d="m681.86,122.81h26.98c23.94,0,50.78,12.43,50.78,45.89s-26.58,46.68-51.97,46.68h-25.79v-92.57Zm18.91,76.57h2.12c21.69,0,36.5-7.67,36.5-29.49,0-20.37-12.03-31.08-32.8-31.08h-5.82v60.57Z"/><path class="cls-1" d="m821.91,200.44c7.01,0,14.02-2.78,19.71-7.67l10.58,13.75c-8.99,6.88-19.7,10.45-31.08,10.45-27.77,0-48.53-19.57-48.53-47.87s22.08-47.87,49.33-47.87c10.58,0,19.31,3.31,28.43,8.99l-9.12,14.68c-5.55-4.23-12.17-7.14-19.31-7.14-16.79,0-29.09,13.75-29.09,31.34,0,18.51,10.98,31.34,29.09,31.34Z"/><path class="cls-1" d="m865.68,215.39v-92.57h18.91v92.57h-18.91Z"/><path class="cls-1" d="m964.6,215.39h-13.49l-26.98-67.84v67.84h-18.91v-92.57h27.9l24.86,64.54,25.79-64.54h27.37v92.57h-18.91v-67.58l-27.64,67.58Z"/><path class="cls-1" d="m260.57,146.95v79.31c0,19.84-16.1,35.94-35.95,35.94h-119.82c-12.24,0-23.06-6.12-29.54-15.48-.13-.18-.25-.36-.38-.54-.22-.32-.43-.65-.61-.97-.11-.18-.22-.36-.32-.52-8.62-14.58-4.39-33.74,13.74-52.5.4-.38.79-.79,1.21-1.21l85.61-85.61c3.51-3.51,3.51-9.18,0-12.69-1.76-1.76-4.05-2.65-6.36-2.65s-4.61.88-6.36,2.65l-92.94,92.92v-79.31c0-19.84,16.1-35.94,35.94-35.94h119.83c12.24,0,23.06,6.12,29.54,15.48.13.18.25.36.38.54.22.32.41.65.61.97.11.16.22.34.31.52,8.64,14.58,4.41,33.74-13.72,52.48-.4.4-.79.81-1.21,1.22l-11.79,11.79-73.82,73.82c-3.51,3.51-3.51,9.18,0,12.69,1.76,1.76,4.05,2.65,6.36,2.65s4.59-.88,6.36-2.65l92.94-92.92Z"/></svg>